<?xml version="1.0" standalone="no"?>
<!DOCTYPE svg PUBLIC "-//W3C//DTD SVG 20010904//EN"
 "http://www.w3.org/TR/2001/REC-SVG-20010904/DTD/svg10.dtd">
<svg version="1.0" xmlns="http://www.w3.org/2000/svg"
 width="250.000000pt" height="250.000000pt" viewBox="0 0 250.000000 250.000000"
 preserveAspectRatio="xMidYMid meet">
<metadata>
Created by potrace 1.11, written by Peter Selinger 2001-2013
</metadata>
<g transform="translate(0.000000,250.000000) scale(0.100000,-0.100000)"
fill="#000000" stroke="none">
<path d="M0 1250 l0 -1250 1250 0 1250 0 0 1250 0 1250 -1250 0 -1250 0 0
-1250z m1040 521 c-1 -9 -7 -1 -15 18 -19 44 -19 64 0 27 8 -15 15 -36 15 -45z
m-272 2 c16 -15 32 -17 32 -3 0 16 21 12 37 -7 8 -10 12 -13 9 -6 -4 6 -1 15
5 19 7 4 9 3 6 -3 -9 -14 22 -40 52 -45 14 -1 26 -9 27 -16 1 -7 0 -8 -3 -2
-2 5 -16 10 -30 10 -20 0 -24 -4 -20 -20 3 -11 0 -20 -6 -20 -12 0 23 -29 36
-30 4 0 7 9 7 21 0 15 4 19 16 15 9 -3 22 -6 30 -6 9 0 12 -4 9 -10 -3 -5 -16
-10 -28 -10 l-22 -1 24 -19 c13 -11 32 -20 42 -20 10 0 19 -4 19 -10 0 -5 -6
-7 -12 -5 -7 2 -25 6 -40 9 -15 2 -37 14 -50 25 -24 23 -40 26 -69 11 -14 -8
-19 -7 -20 2 0 7 -5 0 -11 -16 -8 -21 -7 -30 2 -36 8 -5 -12 -31 -61 -81 -41
-41 -63 -60 -51 -42 12 17 42 49 66 70 39 35 43 41 30 57 -10 14 -10 24 -3 38
10 18 9 18 -11 8 -13 -7 -19 -17 -16 -26 4 -10 2 -13 -7 -7 -6 4 -21 6 -32 5
-11 -1 -5 5 14 13 l34 15 -22 24 -22 24 26 0 c17 0 22 -3 15 -8 -15 -9 -3 -33
13 -27 15 5 16 47 1 47 -6 0 -14 7 -18 15 -3 9 -12 12 -22 8 -11 -4 -15 -2
-11 4 7 12 -37 9 -56 -4 -7 -4 -4 0 6 10 11 9 25 17 33 17 8 0 14 5 14 10 0 6
-8 10 -17 10 -15 0 -15 2 -4 9 16 10 39 4 59 -16z m275 -40 c-3 -7 -6 -13 -8
-13 -2 0 -5 6 -8 13 -3 8 1 14 8 14 7 0 11 -6 8 -14z m0 -31 c3 8 6 5 6 -6 1
-20 1 -20 16 0 14 18 15 18 11 -10 -3 -16 -7 -31 -10 -34 -7 -7 -35 17 -48 42
-10 18 -9 19 4 8 13 -10 17 -10 21 0z m-568 -82 l20 -25 -22 19 c-13 11 -23
24 -23 29 0 6 1 8 3 6 1 -2 11 -15 22 -29z m620 20 c3 -5 1 -10 -4 -10 -6 0
-11 5 -11 10 0 6 2 10 4 10 3 0 8 -4 11 -10z m-407 -27 c-10 -2 -26 -2 -35 0
-10 3 -2 5 17 5 19 0 27 -2 18 -5z m-61 -9 c-3 -3 -12 -4 -19 -1 -8 3 -5 6 6
6 11 1 17 -2 13 -5z m-40 -36 c1 -29 1 -30 -6 -8 -5 20 -15 26 -46 31 l-40 6
45 2 c45 1 46 0 47 -31z m36 -93 c1 -11 12 -22 27 -25 l25 -6 -27 -6 c-17 -3
-32 0 -39 8 -6 8 -17 14 -23 14 -7 0 -21 7 -32 15 -18 14 -17 15 10 9 21 -5
27 -4 22 5 -4 6 -14 11 -22 11 -8 0 -14 6 -14 13 0 8 -4 7 -10 -3 -5 -8 -10
-10 -10 -5 0 6 9 18 20 28 19 16 20 16 20 -4 0 -18 2 -19 15 -5 8 8 15 21 16
28 1 15 19 -46 22 -77z"/>
</g>
</svg>
